<svg width="265" height="271" viewBox="0 0 265 271" fill="none" xmlns="http://www.w3.org/2000/svg">
<g clip-path="url(#clip0_739_48)">
<path fill-rule="evenodd" clip-rule="evenodd" d="M155.859 189.234C153.44 194.077 147.553 196.044 142.709 193.625L91.8497 168.232L30.8373 200.365L122.815 247.744C131.677 252.308 142.265 251.988 150.834 246.895L225.358 202.606C234.699 197.054 240.14 186.736 239.444 175.892L239.36 174.58C238.701 164.306 232.629 155.156 223.417 150.557L173.106 125.438L113.21 156.983L151.467 176.084C156.311 178.502 158.277 184.39 155.859 189.234ZM91.611 146.199L151.508 114.654L113.875 95.8647C109.031 93.4462 107.065 87.559 109.484 82.7152C111.902 77.8713 117.789 75.9052 122.633 78.3236L172.867 103.405L233.957 71.2311L142.356 23.6052C133.42 18.9588 122.71 19.2967 114.084 24.497L39.8166 69.2695C30.5671 74.8457 25.1953 85.1111 25.8869 95.8892L25.9817 97.3682C26.641 107.643 32.7128 116.792 41.9242 121.391L91.611 146.199ZM70.2514 157.448L33.1662 138.932C17.7102 131.215 7.52221 115.863 6.41611 98.6235L6.32122 97.1446C5.16092 79.0597 14.1742 61.8352 29.6941 52.4789L103.961 7.70628C118.435 -1.01941 136.406 -1.58622 151.401 6.21002L257.723 61.4901C258.549 61.9194 259.288 62.4499 259.933 63.0585C261.355 63.9465 262.568 65.2113 263.405 66.8015C265.928 71.5917 264.09 77.5202 259.3 80.0431L194.466 114.188L232.175 133.016C247.631 140.733 257.819 156.085 258.926 173.325L259.01 174.637C260.177 192.832 251.047 210.145 235.374 219.46L160.851 263.749C146.472 272.294 128.707 272.832 113.837 265.173L7.65147 210.476C6.06304 209.657 4.79278 208.465 3.8928 207.062C3.12796 206.34 2.4672 205.482 1.94971 204.499C-0.573141 199.709 1.26498 193.781 6.05526 191.258L70.2514 157.448Z" fill="#533BE2"/>
</g>
<defs>
<clipPath id="clip0_739_48">
<rect width="265" height="271" fill="white"/>
</clipPath>
</defs>
</svg>
